<svg width="126" height="32" viewBox="0 0 126 32" fill="none" xmlns="http://www.w3.org/2000/svg">
<circle cx="17" cy="17" r="13.5" stroke="black" stroke-width="3"/>
<circle cx="14" cy="14" r="13.5" stroke="black"/>
<path d="M52.06 9.864V22.5H48.982V17.298H44.194V22.5H41.116V9.864H44.194V14.814H48.982V9.864H52.06ZM63.75 17.316C63.75 17.604 63.732 17.904 63.696 18.216H56.73C56.778 18.84 56.976 19.32 57.324 19.656C57.684 19.98 58.122 20.142 58.638 20.142C59.406 20.142 59.94 19.818 60.24 19.17H63.516C63.348 19.83 63.042 20.424 62.598 20.952C62.166 21.48 61.62 21.894 60.96 22.194C60.3 22.494 59.562 22.644 58.746 22.644C57.762 22.644 56.886 22.434 56.118 22.014C55.35 21.594 54.75 20.994 54.318 20.214C53.886 19.434 53.67 18.522 53.67 17.478C53.67 16.434 53.88 15.522 54.3 14.742C54.732 13.962 55.332 13.362 56.1 12.942C56.868 12.522 57.75 12.312 58.746 12.312C59.718 12.312 60.582 12.516 61.338 12.924C62.094 13.332 62.682 13.914 63.102 14.67C63.534 15.426 63.75 16.308 63.75 17.316ZM60.6 16.506C60.6 15.978 60.42 15.558 60.06 15.246C59.7 14.934 59.25 14.778 58.71 14.778C58.194 14.778 57.756 14.928 57.396 15.228C57.048 15.528 56.832 15.954 56.748 16.506H60.6ZM64.7618 17.46C64.7618 16.428 64.9538 15.522 65.3378 14.742C65.7338 13.962 66.2678 13.362 66.9398 12.942C67.6118 12.522 68.3618 12.312 69.1898 12.312C69.8978 12.312 70.5158 12.456 71.0438 12.744C71.5838 13.032 71.9978 13.41 72.2858 13.878V12.456H75.3638V22.5H72.2858V21.078C71.9858 21.546 71.5658 21.924 71.0258 22.212C70.4978 22.5 69.8798 22.644 69.1718 22.644C68.3558 22.644 67.6118 22.434 66.9398 22.014C66.2678 21.582 65.7338 20.976 65.3378 20.196C64.9538 19.404 64.7618 18.492 64.7618 17.46ZM72.2858 17.478C72.2858 16.71 72.0698 16.104 71.6378 15.66C71.2178 15.216 70.7018 14.994 70.0898 14.994C69.4778 14.994 68.9558 15.216 68.5238 15.66C68.1038 16.092 67.8938 16.692 67.8938 17.46C67.8938 18.228 68.1038 18.84 68.5238 19.296C68.9558 19.74 69.4778 19.962 70.0898 19.962C70.7018 19.962 71.2178 19.74 71.6378 19.296C72.0698 18.852 72.2858 18.246 72.2858 17.478ZM80.6686 9.18V22.5H77.5906V9.18H80.6686ZM88.4972 19.89V22.5H86.9312C85.8152 22.5 84.9452 22.23 84.3212 21.69C83.6972 21.138 83.3852 20.244 83.3852 19.008V15.012H82.1612V12.456H83.3852V10.008H86.4632V12.456H88.4792V15.012H86.4632V19.044C86.4632 19.344 86.5352 19.56 86.6792 19.692C86.8232 19.824 87.0632 19.89 87.3992 19.89H88.4972ZM96.3857 12.348C97.5377 12.348 98.4617 12.732 99.1577 13.5C99.8537 14.256 100.202 15.3 100.202 16.632V22.5H97.1417V17.046C97.1417 16.374 96.9677 15.852 96.6197 15.48C96.2717 15.108 95.8037 14.922 95.2157 14.922C94.6277 14.922 94.1597 15.108 93.8117 15.48C93.4637 15.852 93.2897 16.374 93.2897 17.046V22.5H90.2117V9.18H93.2897V13.806C93.6017 13.362 94.0277 13.008 94.5677 12.744C95.1077 12.48 95.7137 12.348 96.3857 12.348ZM112.259 12.456V22.5H109.181V21.132C108.869 21.576 108.443 21.936 107.903 22.212C107.375 22.476 106.787 22.608 106.139 22.608C105.371 22.608 104.693 22.44 104.105 22.104C103.517 21.756 103.061 21.258 102.737 20.61C102.413 19.962 102.251 19.2 102.251 18.324V12.456H105.311V17.91C105.311 18.582 105.485 19.104 105.833 19.476C106.181 19.848 106.649 20.034 107.237 20.034C107.837 20.034 108.311 19.848 108.659 19.476C109.007 19.104 109.181 18.582 109.181 17.91V12.456H112.259ZM117.548 13.878C117.836 13.41 118.25 13.032 118.79 12.744C119.33 12.456 119.948 12.312 120.644 12.312C121.472 12.312 122.222 12.522 122.894 12.942C123.566 13.362 124.094 13.962 124.478 14.742C124.874 15.522 125.072 16.428 125.072 17.46C125.072 18.492 124.874 19.404 124.478 20.196C124.094 20.976 123.566 21.582 122.894 22.014C122.222 22.434 121.472 22.644 120.644 22.644C119.936 22.644 119.318 22.506 118.79 22.23C118.262 21.942 117.848 21.564 117.548 21.096V22.5H114.47V9.18H117.548V13.878ZM121.94 17.46C121.94 16.692 121.724 16.092 121.292 15.66C120.872 15.216 120.35 14.994 119.726 14.994C119.114 14.994 118.592 15.216 118.16 15.66C117.74 16.104 117.53 16.71 117.53 17.478C117.53 18.246 117.74 18.852 118.16 19.296C118.592 19.74 119.114 19.962 119.726 19.962C120.338 19.962 120.86 19.74 121.292 19.296C121.724 18.84 121.94 18.228 121.94 17.46Z" fill="black"/>
</svg>
